<svg width="81" height="100" viewBox="0 0 81 100" fill="none" xmlns="http://www.w3.org/2000/svg">
<path d="M47.8941 52.7126C46.3075 52.7349 48.1941 53.5299 50.2652 53.8487C50.8375 53.4022 51.3568 52.9502 51.8191 52.5106C50.5291 52.8264 49.2172 52.8329 47.8941 52.7126ZM56.4095 50.5895C57.3545 49.286 58.0425 47.8579 58.2856 46.3822C58.0737 47.4345 57.5029 48.3433 56.9645 49.3022C53.9987 51.1691 56.6852 48.1933 56.9629 47.0622C53.7745 51.076 56.5252 49.4687 56.4095 50.5895ZM59.5533 42.4106C59.7445 39.5537 58.991 40.4568 58.7375 41.5472C59.0322 41.701 59.2672 43.5614 59.5533 42.4106ZM41.8779 3.35986C42.7245 3.51179 43.7075 3.62832 43.5695 3.83063C44.4952 3.62756 44.7056 3.44025 41.8779 3.35986Z" fill="#D70751"/>
<path d="M43.5692 3.83057L42.9707 3.95364L43.5276 3.9048L43.5692 3.83057Z" fill="#D70751"/>
<path d="M69.9727 43.494C70.0677 46.0598 69.2227 47.3044 68.4604 49.5083L67.0896 50.1933C65.9669 52.3725 67.1981 51.5771 66.3946 53.3106C64.6423 54.8679 61.0781 58.1836 59.9373 58.4863C59.1054 58.4683 60.5023 57.504 60.6846 57.1259C58.3396 58.7367 58.8023 59.5433 55.2166 60.5221L55.1116 60.2886C46.265 64.4494 33.9781 56.2033 34.14 44.9517C34.0454 45.6659 33.8716 45.4875 33.6754 45.7763C33.2192 39.9871 36.3493 34.1725 41.6273 31.7983C46.7916 29.2421 52.8439 30.2913 56.5427 33.7383C54.5112 31.0767 50.4677 28.2559 45.6754 28.5198C40.98 28.594 36.5889 31.5775 35.1231 34.8156C32.7181 36.3302 32.4389 40.6529 31.3908 41.4436C29.9812 51.8063 34.0431 56.2833 40.9146 61.5494C41.9962 62.2786 41.2192 62.3894 41.3658 62.9444C39.0827 61.8756 36.9919 60.2613 35.2731 58.2852C36.1854 59.6209 37.1696 60.9186 38.4419 61.9386C36.2896 61.209 33.4135 56.7221 32.5743 56.5394C36.2846 63.1833 47.6289 68.1913 53.5692 65.7071C50.8208 65.8083 47.3285 65.7633 44.24 64.6217C42.9435 63.9548 41.1793 62.5713 41.4939 62.3129C49.6012 65.3417 57.9762 64.6071 64.99 58.984C66.775 57.594 68.7243 55.2298 69.2873 55.1971C68.4389 56.4729 69.4323 55.8109 68.7804 56.9367C70.5593 54.069 68.0081 55.7694 70.6185 51.984L71.5827 53.3121C71.2246 50.9321 74.5393 48.0413 74.2031 44.2767C74.9627 43.1252 75.0516 45.5152 74.2443 48.164C75.3643 45.2256 74.5393 44.7536 74.8273 42.329C75.1389 43.1436 75.5454 44.0098 75.755 44.8698C75.0262 42.0306 76.5043 40.0879 76.8696 38.4375C76.5093 38.2779 75.7435 39.6929 75.5685 36.3386C75.5935 34.8817 75.9739 35.5752 76.1204 35.2167C75.8343 35.0525 75.0843 33.9359 74.6281 31.7936C74.9589 31.2906 75.5127 33.0986 75.9627 33.1729C75.6731 31.4694 75.1746 30.1709 75.1539 28.8644C73.8381 26.1148 74.6881 29.2309 73.6212 27.684C72.2208 23.3159 74.7831 26.6698 74.9558 24.6856C77.0789 27.7606 78.2893 32.5267 78.8443 34.5006C78.42 32.0936 77.7354 29.7621 76.8989 27.5063C77.5439 27.7775 75.8608 22.5544 77.7373 26.0133C75.7335 18.6394 69.1596 11.749 63.1123 8.51594C63.8523 9.19287 64.7869 10.0433 64.4512 10.1763C61.4439 8.38556 61.9727 8.24633 61.5416 7.48979C59.0919 6.49325 58.9308 7.56979 57.3081 7.49133C52.6908 5.0421 51.8012 5.30287 47.5512 3.76787L47.7443 4.67133C44.6854 3.65248 44.1808 5.05787 40.8743 4.67479C40.6731 4.51748 41.9331 4.10594 42.9712 3.95517C40.0135 4.34556 40.1523 3.37249 37.2581 4.06249C37.9716 3.5621 38.7254 3.23095 39.4862 2.80518C37.0742 2.95171 33.7281 4.20864 34.7608 3.06556C30.8243 4.82287 23.8366 7.2871 19.9158 10.9636L19.7923 10.1398C17.9954 12.2967 11.9573 16.5813 11.4762 19.3748L10.9958 19.4867C10.0608 21.0698 9.45579 22.864 8.71425 24.4929C7.49117 26.5763 6.92156 25.2948 7.09579 25.6213C4.69079 30.4979 3.49617 34.5952 2.46387 37.9556C3.19925 39.0548 2.48156 44.5733 2.75964 48.9894C1.55156 70.8006 18.0673 91.9779 36.12 96.8663C38.7662 97.8121 42.7008 97.7756 46.0481 97.8733C42.0989 96.7436 41.5885 97.2748 37.7423 95.9333C34.9673 94.6263 34.3589 93.1344 32.3935 91.429L33.1712 92.8033C29.3169 91.439 30.9293 91.1148 27.7935 90.1217L28.6243 89.0371C27.3746 88.9425 25.315 86.9313 24.7516 85.8175L23.385 85.8713C21.7427 83.8448 20.8677 82.3856 20.9316 81.254L20.49 82.0413C19.9896 81.1817 14.4481 74.4417 17.3231 76.0109C16.7889 75.5221 16.0789 75.216 15.3089 73.8175L15.8943 73.1486C14.5108 71.369 13.3477 69.0863 13.4362 68.3271C14.1743 69.324 14.6862 69.5098 15.1931 69.6809C11.6996 61.0121 11.5035 69.2033 8.85694 60.8571L9.41694 60.8125C8.98771 60.1656 8.72733 59.464 8.38233 58.7748L8.62579 56.3467C6.11002 53.4383 7.92233 43.9809 8.28464 38.794C8.53656 36.6844 10.3843 34.4394 11.79 30.9183L10.9335 30.7706C12.5704 27.9156 20.28 19.3036 23.85 19.7467C25.5804 17.574 23.5069 19.739 23.1685 19.1917C26.9677 15.2598 28.1623 16.414 30.7262 15.7067C33.4916 14.0652 28.3531 16.3467 29.6643 15.0806C34.4439 13.8598 33.0519 12.3052 39.2877 11.6852C39.9454 12.0594 37.7612 12.2633 37.2127 12.749C41.195 10.8006 49.8162 11.2436 55.415 13.8302C61.9131 16.8671 69.2123 25.8425 69.5004 34.2875L69.8281 34.3756C69.6623 37.7329 70.3419 41.6148 69.1639 45.1809L69.9716 43.4944" fill="#D70751"/>
<path d="M30.5767 54.8903L30.3544 56.003C31.3967 57.4195 32.224 58.9541 33.5555 60.0614C32.5979 58.1911 31.8859 57.4184 30.5767 54.8903ZM33.0417 54.7937C32.4898 54.1834 32.1632 53.4487 31.7975 52.7168C32.1471 54.0034 32.8632 55.1087 33.5298 56.2334L33.0417 54.7937ZM76.6613 45.313L76.4286 45.8976C76.0013 48.933 75.0782 51.9364 73.6636 54.7211C75.2252 51.783 76.2367 48.5691 76.6598 45.313M42.1913 2.59874C43.264 2.20567 44.8279 2.38336 45.9659 2.12451C44.4832 2.24913 43.0071 2.32336 41.549 2.51105L42.1913 2.59874ZM4.53093 22.6245C4.77785 24.9134 2.80901 25.8014 4.96708 24.2926C6.12362 21.6876 4.51516 23.5734 4.53093 22.6245ZM1.99516 33.216C2.49208 31.6903 2.58208 30.7741 2.77208 29.8911C1.39862 31.6472 2.14016 32.0214 1.99516 33.216Z" fill="#D70751"/>
</svg>
