<svg width="100" height="100" viewBox="0 0 100 100" fill="none" xmlns="http://www.w3.org/2000/svg">
<g clip-path="url(#clip0_4746_360)">
<path d="M99.8598 50.0022C99.8598 22.4648 77.5364 0.140625 49.9992 0.140625C22.4744 0.140625 0.159665 22.446 0.140137 49.967V88.5517C0.154949 94.8005 5.22298 99.8591 11.4757 99.8591H50.0194C77.5474 99.8483 99.8598 77.5322 99.8598 50.0022Z" fill="#294172"/>
<path d="M28.8862 53.2202H46.8056V71.1396C46.8056 81.0311 38.7777 89.059 28.8862 89.059C18.9947 89.059 10.9668 81.0311 10.9668 71.1396C10.9668 61.2481 18.9947 53.2202 28.8862 53.2202Z" stroke="#3C6EB4" stroke-width="11.21"/>
<path d="M64.6387 53.2549H46.7193V35.3355C46.7193 25.444 54.7472 17.4161 64.6387 17.4161C74.5302 17.4161 82.5581 25.444 82.5581 35.3355C82.5581 45.227 74.5302 53.2549 64.6387 53.2549Z" stroke="#3C6EB4" stroke-width="11.21"/>
<path d="M52.2872 47.7637V71.1143C52.2872 84.0372 41.8095 94.515 28.8862 94.515C26.9256 94.515 25.5317 94.2937 23.7168 93.8193C21.0704 93.1267 18.9076 90.9569 18.9067 88.4331C18.9067 85.3825 21.1211 83.1635 24.4312 83.1635C26.0066 83.1635 26.5783 83.466 28.8862 83.466C35.6996 83.466 41.2262 77.9472 41.2381 71.1338V60.401C41.2381 59.4393 40.4566 58.6601 39.4933 58.6601L31.379 58.6585C28.3557 58.6585 25.9131 56.2471 25.9131 53.2156C25.9114 50.1652 28.3808 47.7637 31.4367 47.7637" fill="white"/>
<path d="M41.2377 58.7114V35.3608C41.2377 22.4379 51.7154 11.96 64.6387 11.96C66.5993 11.96 67.9932 12.1814 69.8081 12.6558C72.4545 13.3484 74.6173 15.5182 74.6182 18.042C74.6182 21.0926 72.4038 23.3116 69.0937 23.3116C67.5183 23.3116 66.9466 23.0091 64.6387 23.0091C57.8253 23.0091 52.2987 28.5279 52.2868 35.3413V46.0741C52.2868 47.0358 53.0683 47.815 54.0316 47.815L62.1459 47.8166C65.1692 47.8166 67.6118 50.228 67.6118 53.2595C67.6135 56.3099 65.1441 58.7114 62.0882 58.7114" fill="white"/>
<path d="M91.2562 91.23L91.2562 89.1583L90.3092 91.3298L89.3873 89.1583L89.3875 91.23H88.8563V87.9585H89.4133L90.3249 90.0486L91.2227 87.9585H91.7865V91.23H91.2562ZM87.3862 88.5065V91.23H86.8311V88.5065H85.9004V87.9585H88.3159V88.5065" fill="#3C6EB4"/>
</g>
<defs>
<clipPath id="clip0_4746_360">
<rect width="100" height="100" fill="white"/>
</clipPath>
</defs>
</svg>
