<svg width="106" height="106" viewBox="0 0 106 106" fill="none" xmlns="http://www.w3.org/2000/svg">
<path fill-rule="evenodd" clip-rule="evenodd" d="M44.9395 49.2638L48.641 52.9436L44.9395 56.6233H18.8877V68.8843L3 52.9436L18.8877 37.2714V49.2638L44.9395 49.2638Z" fill="#932279"/>
<path fill-rule="evenodd" clip-rule="evenodd" d="M56.7366 44.9397L53.0569 48.6411L49.3771 44.9397V18.8877H37.1162L53.0569 3L68.7289 18.8877H56.7366L56.7366 44.9397Z" fill="#EFA724"/>
<path fill-rule="evenodd" clip-rule="evenodd" d="M61.0605 56.7367L57.359 53.0569L61.0605 49.3772H87.1123V37.1162L103 53.0569L87.1123 68.7291V56.7367L61.0605 56.7367Z" fill="#262577"/>
<path fill-rule="evenodd" clip-rule="evenodd" d="M49.2634 61.0608L52.9431 57.3593L56.6229 61.0608V87.1128H68.8838L52.9431 103L37.2711 87.1128H49.2634L49.2634 61.0608Z" fill="#9CCD2A"/>
<path d="M17.9536 17.9541H49.6083V49.609H17.9536V17.9541Z" fill="#9CCD2A" stroke="white" stroke-width="3.76889"/>
<path d="M56.3916 17.9541H88.0463V49.609H56.3916V17.9541Z" fill="#932279" stroke="white" stroke-width="3.76889"/>
<path d="M56.3916 56.3916H88.0463V88.0465H56.3916V56.3916Z" fill="#EFA724" stroke="white" stroke-width="3.76889"/>
<path d="M17.9536 56.3916H49.6083V88.0465H17.9536V56.3916Z" fill="#262577" stroke="white" stroke-width="3.76889"/>
<path d="M3.43701 53L25.8203 30.6166L48.2036 53L25.8203 75.3834L3.43701 53Z" stroke="white" stroke-width="3.76889"/>
<path d="M30.6167 25.8203L53 3.43695L75.3832 25.8203L53 48.2037L30.6167 25.8203Z" stroke="white" stroke-width="3.76864"/>
<path d="M57.7964 53.0006L80.1797 30.6172L102.563 53.0006L80.1797 75.3839L57.7964 53.0006Z" stroke="white" stroke-width="3.76889"/>
<path d="M30.6162 80.1802L52.9995 57.7968L75.3828 80.1802L52.9995 102.564L30.6162 80.1802Z" stroke="white" stroke-width="3.76889"/>
</svg>
