<svg width="100" height="100" viewBox="0 0 100 100" fill="none" xmlns="http://www.w3.org/2000/svg">
<g clip-path="url(#clip0_4746_221)">
<path d="M99.8582 49.8762C99.8582 77.4207 77.5281 99.7512 49.982 99.7512C22.4352 99.7512 0.105469 77.4207 0.105469 49.8762C0.105469 22.3301 22.4359 0 49.982 0C77.5285 0 99.8582 22.3301 99.8582 49.8762Z" fill="#DD4814"/>
<path d="M16.0674 43.2158C12.3881 43.2158 9.40723 46.1967 9.40723 49.876C9.40723 53.5533 12.3881 56.5346 16.0674 56.5346C19.7451 56.5346 22.726 53.5533 22.726 49.876C22.726 46.1967 19.7451 43.2158 16.0674 43.2158ZM63.6123 73.4806C60.4275 75.3205 59.335 79.3908 61.1748 82.574C63.0127 85.7592 67.083 86.851 70.2682 85.0115C73.4529 83.1736 74.5451 79.1033 72.7057 75.9178C70.8678 72.7349 66.7951 71.6431 63.6123 73.4806ZM30.5318 49.876C30.5318 43.2955 33.8006 37.4814 38.8018 33.9611L33.9334 25.8072C28.1076 29.7017 23.7725 35.6525 21.9709 42.6224C24.0732 44.3373 25.4186 46.9486 25.4186 49.8756C25.4186 52.801 24.0732 55.4123 21.9709 57.1275C23.7701 64.099 28.1053 70.0506 33.9334 73.9451L38.8018 65.7889C33.8006 62.2705 30.5318 56.4568 30.5318 49.876ZM49.9818 30.424C60.1432 30.424 68.4799 38.2146 69.3549 48.1506L78.8432 48.0107C78.3768 40.6756 75.1721 34.0904 70.2486 29.2482C67.7166 30.2049 64.7916 30.0584 62.2643 28.6014C59.7318 27.14 58.144 24.6748 57.71 21.999C55.1928 21.3024 52.5932 20.949 49.9814 20.9482C45.5344 20.9437 41.1467 21.9682 37.1615 23.9416L41.7885 32.2334C44.3546 31.039 47.1513 30.4214 49.9818 30.424ZM49.9818 69.3264C47.1515 69.3289 44.3549 68.7113 41.7889 67.517L37.1619 75.808C41.1466 77.7835 45.5347 78.8092 49.9822 78.8045C52.594 78.8039 55.1937 78.4495 57.7104 77.751C58.1443 75.0752 59.7326 72.6123 62.2643 71.1486C64.7939 69.6889 67.717 69.5451 70.2486 70.5017C75.1725 65.6596 78.3768 59.0744 78.8439 51.7392L69.3529 51.5994C68.4799 61.5381 60.1436 69.3264 49.9818 69.3264ZM63.61 26.2674C66.7951 28.1064 70.8658 27.0174 72.7033 23.8322C74.5432 20.6471 73.4533 16.5764 70.2682 14.7365C67.083 12.899 63.0127 13.9904 61.1725 17.1756C59.3354 20.3592 60.4272 24.4295 63.61 26.2674Z" fill="white"/>
</g>
<defs>
<clipPath id="clip0_4746_221">
<rect width="100" height="100" fill="white"/>
</clipPath>
</defs>
</svg>
